#!OML:ASF H:\Terrain\Patient Classification 1\Animal1\Tuesday\Animal1.ASF
:FULLY-SPECIFIED
:DEGREES
2016
root 3.35205 16.3368 -3.80552 32.6316 -35.5162 0.128062
lowerback 18.7056 -1.27326 2.34505
upperback -3.49752 -0.363408 5.88683
thorax -14.5739 -0.0348989 5.50161
lowerneck -7.18239 2.85859 -2.21339
upperneck -16.8536 3.91858 1.84233
head -4.41762 1.87487 0.951597
rclavicle -7.15625e-015 -5.24792e-014
rhumerus -63.8248 -31.6549 7.23141
rradius 27.3574
rwrist -62.2983
rhand 14.7255 -351.519
rfingers 7.12502
rthumb 39.5932 -16.8664
lclavicle -7.15625e-015 -5.24792e-014
lhumerus -64.6803 37.771 -8.44347
lradius 27.8526
lwrist 13.877
lhand 61.7449 34.6556
lfingers 7.12502
lthumb 74.8871 715.928
rfemur -55.3111 10.7009 20.8647
rtibia 34.8046
rfoot -4.75406 -12.8565
rtoes -3.57701
lfemur -50.0815 -13.9564 -5.02595
ltibia 61.2912
lfoot 23.3961 3.50586
ltoes 8.32592
2017
root 3.35376 16.3425 -3.8035 32.4052 -35.6072 0.0601888
lowerback 18.4981 -1.3447 2.2094
upperback -3.46765 -0.517526 5.80009
thorax -14.3986 -0.10262 5.51183
lowerneck -7.49525 2.98543 -1.887
upperneck -16.5989 4.06655 1.74245
head -4.25648 1.93509 0.86325
rclavicle -1.04958e-013 2.78299e-014
rhumerus -64.6591 -31.5524 7.64547
rradius 27.1994
rwrist -61.7403
rhand 10.9519 -352.591
rfingers 7.12502
rthumb 36.0286 -18.9005
lclavicle -1.04958e-013 2.78299e-014
lhumerus -65.0543 37.5516 -9.28048
lradius 27.8047
lwrist 13.9123
lhand 59.7149 36.4374
lfingers 7.12502
lthumb 74.5362 725.03
rfemur -54.8993 10.8728 20.8315
rtibia 34.5627
rfoot -4.8052 -12.8214
rtoes -2.98654
lfemur -49.6181 -13.8694 -5.13188
ltibia 61.1002
lfoot 23.4568 3.96853
ltoes 10.7472
2018
root 3.35422 16.3568 -3.79764 32.078 -35.6164 -0.122754
lowerback 18.4555 -1.41776 2.29447
upperback -3.41423 -0.607391 5.75321
thorax -14.3033 -0.156298 5.42927
lowerneck -7.565 3.06903 -1.51975
upperneck -16.5325 4.12397 1.40579
head -4.1997 1.95489 0.686868
rclavicle 3.49861e-014 -1.43125e-014
rhumerus -65.7483 -31.5771 8.70217
rradius 26.9529
rwrist -60.9342
rhand 7.50754 -353.63
rfingers 7.12502
rthumb 32.7587 -20.6807
lclavicle 3.49861e-014 -1.43125e-014
lhumerus -65.7009 37.4313 -10.5175
lradius 27.4801
lwrist 13.0854
lhand 57.5658 36.7387
lfingers 7.12502
lthumb 73.8984 732.6
rfemur -54.2489 11.0482 20.9545
rtibia 34.2887
rfoot -4.85878 -12.784
rtoes -2.02258
lfemur -49.0012 -13.8579 -5.13793
ltibia 60.9274
lfoot 22.9453 4.98274
ltoes 14.8124
2019
root 3.35534 16.3435 -3.78708 31.8333 -35.4836 -0.47301
lowerback 18.383 -1.47868 2.57634
upperback -3.40022 -0.619814 5.82541
thorax -14.2464 -0.183997 5.34963
lowerneck -7.31034 3.08529 -1.38725
upperneck -16.6599 4.10042 1.0725
head -4.27948 1.94667 0.548052
rclavicle 9.14409e-014 -6.36111e-015
rhumerus -66.6416 -30.9595 9.48422
rradius 26.7755
rwrist -61.1262
rhand 3.89844 -354.569
rfingers 7.12502
rthumb 29.3187 -22.2778
lclavicle 9.14409e-014 -6.36111e-015
lhumerus -66.4298 37.0869 -11.6995
lradius 27.1753
lwrist 11.9526
lhand 54.9386 36.4776
lfingers 7.12502
lthumb 72.7915 740.316
rfemur -53.5979 11.2208 21.292
rtibia 34.057
rfoot -4.78939 -13.0612
rtoes -2.839
lfemur -48.4047 -13.7486 -5.06741
ltibia 60.8558
lfoot 22.3439 5.48558
ltoes 16.1836
2020
root 3.35034 16.3512 -3.77389 31.6548 -35.3906 -0.765818
lowerback 18.2037 -1.53673 2.71821
upperback -3.40995 -0.663514 5.93165
thorax -14.1491 -0.212964 5.39476
lowerneck -7.1203 3.10529 -1.40854
upperneck -16.7558 4.11434 0.969155
head -4.34802 1.95765 0.513273
rclavicle 1.15295e-013 -6.2816e-014
rhumerus -67.4842 -30.209 10.3583
rradius 26.6172
rwrist -61.5247
rhand 0.543102 -355.815
rfingers 7.12502
rthumb 26.1105 -24.0397
lclavicle 1.15295e-013 -6.2816e-014
lhumerus -67.3332 36.5269 -12.8894
lradius 27.0264
lwrist 11.0052
lhand 52.0067 36.4994
lfingers 7.12502
lthumb 71.2064 747.943
rfemur -52.9653 11.3536 21.5953
rtibia 33.771
rfoot -4.62494 -13.2409
rtoes -3.42375
lfemur -47.7796 -13.6308 -5.04692
ltibia 60.6733
lfoot 22.155 5.98132
ltoes 17.3772
